<svg width="183" height="58" fill="none" xmlns="http://www.w3.org/2000/svg"><path d="M20.125 17.205c.34-4.87 2.994-8.91 6.577-10.404a6.071 6.071 0 0 1-.473-2.403c0-.287.02-.558.058-.824-4.232 1.866-7.32 7.044-7.485 13.2.197.06.399.123.6.187.245.08.484.16.723.25M40.726 16.77c-.164-6.162-3.243-11.335-7.48-13.206a6.292 6.292 0 0 1-.41 3.238c3.579 1.493 6.226 5.534 6.572 10.398.24-.09.484-.17.728-.25.197-.064.399-.122.596-.18M29.758 8.242c1.436 0 2.595-1.723 2.595-3.85 0-2.126-1.16-3.843-2.595-3.843-1.435 0-2.594 1.723-2.594 3.844 0 2.12 1.164 3.849 2.594 3.849Z" fill="#1F2A37"/><path d="M54.442 27.061c-.314 3.839-3.296 7.576-7.767 9.426.16.202.314.41.473.617.117.17.234.34.356.51 5.752-2.073 9.676-6.581 10.138-11.159-.239.112-.494.218-.77.303-.84.277-1.67.362-2.43.298M40.716 18.167c4.705-1.132 9.32.144 11.828 3.063a6.228 6.228 0 0 1 2.143-1.191c.271-.09.542-.155.808-.208-3.062-3.429-8.894-4.763-14.763-3.062.005.165.01.34.01.51 0 .298-.01.59-.02.883" fill="#0083C6"/><path d="M39.44 18.534c.047-.016.085-.032.122-.042a19.67 19.67 0 0 1 1.148-.325c.016-.292.027-.584.027-.887 0-.17 0-.34-.01-.51-.198.058-.4.116-.596.18-.245.08-.49.165-.729.25.027.361.038.723.038 1.095v.234" fill="#1F2A37"/><path d="M59.44 22.213c-.441-1.36-2.44-1.935-4.46-1.276-2.02.654-3.307 2.297-2.855 3.658.44 1.36 2.44 1.935 4.46 1.281 2.02-.66 3.301-2.297 2.86-3.663" fill="#0083C6"/><path d="M46.17 38.045c2.525 4.12 2.743 8.9.734 12.19a6.302 6.302 0 0 1 1.802 1.664c.165.234.308.468.436.702 2.312-3.971 1.786-9.931-1.643-14.987l-.59.208c-.245.08-.49.148-.74.223ZM29.716 50.448c3.758 4.87 9.282 7.23 13.796 6.252a6.88 6.88 0 0 1-.537-.633 6.256 6.256 0 0 1-1.032-2.222c-3.764.893-8.261-.808-11.403-4.519-.128.191-.266.383-.404.574-.133.186-.277.367-.415.553M43.581 50.868c-1.164.84-1.09 2.918.154 4.64 1.25 1.718 3.206 2.43 4.365 1.59 1.164-.845 1.09-2.923-.16-4.64-1.249-1.723-3.2-2.436-4.364-1.59" fill="#F4C40E"/><path d="M11.965 37.593c-3.376 5.04-3.88 10.951-1.584 14.901a5.51 5.51 0 0 1 .441-.701 6.184 6.184 0 0 1 1.786-1.664c-1.983-3.264-1.78-7.996.686-12.095a14.261 14.261 0 0 1-.686-.212c-.218-.07-.43-.144-.648-.224M28.908 49.31c-3.142 3.642-7.591 5.306-11.324 4.418-.175.75-.51 1.51-1.036 2.222a7.007 7.007 0 0 1-.526.638c4.481.968 9.952-1.35 13.7-6.14-.107-.15-.224-.298-.325-.442-.17-.228-.335-.462-.483-.696M15.953 50.761c-1.164-.84-3.12-.133-4.37 1.59-1.25 1.717-1.319 3.796-.154 4.64 1.153.84 3.11.128 4.359-1.589 1.255-1.722 1.324-3.8.165-4.64Z" fill="#009E3D"/><path d="M18.802 16.764c-5.874-1.701-11.7-.356-14.763 3.067.266.054.532.117.803.208.84.27 1.563.685 2.148 1.185 2.504-2.918 7.118-4.189 11.828-3.057a16.55 16.55 0 0 1-.026-.887c0-.17 0-.34.01-.51M12.79 36.46C8.355 34.6 5.4 30.879 5.09 27.062a6.194 6.194 0 0 1-2.44-.297 7.44 7.44 0 0 1-.765-.309c.462 4.567 4.36 9.06 10.08 11.138.132-.197.276-.399.42-.596.127-.18.27-.361.403-.536Z" fill="#DF0826"/><path d="M20.083 18.534c0-.08-.005-.16-.005-.234 0-.372.016-.739.043-1.095-.24-.09-.484-.17-.729-.25-.202-.064-.398-.127-.595-.18-.01.164-.01.34-.01.51 0 .297.01.595.02.887.383.09.76.203 1.149.325.037.016.08.032.117.042M7.41 24.59c.44-1.361-.836-3.004-2.856-3.663-2.02-.654-4.019-.08-4.465 1.28-.447 1.367.84 3.005 2.86 3.664 2.02.654 4.014.08 4.46-1.281Z" fill="#DF0826"/><path d="M51.305 24.855c-1.371-4.232-6.789-6.273-12.073-4.556-.532.17-1.037.372-1.52.606.08-.563.122-1.143.122-1.733 0-5.555-3.62-10.08-8.07-10.08s-8.07 4.525-8.07 10.08c0 .59.042 1.164.127 1.733-.489-.228-.994-.436-1.52-.606-5.29-1.722-10.707.325-12.084 4.562-1.372 4.226 1.802 9.07 7.092 10.786.489.165.989.287 1.472.383-.33.362-.643.744-.94 1.148-3.27 4.498-2.988 10.277.605 12.892 3.61 2.61 9.182 1.085 12.451-3.413.309-.43.585-.86.83-1.307.265.483.563.956.893 1.419 3.264 4.492 8.851 6.023 12.45 3.408 3.6-2.616 3.865-8.4.601-12.892-.319-.441-.67-.861-1.031-1.244a11.903 11.903 0 0 0 1.568-.399c5.29-1.717 8.464-6.555 7.092-10.787m-8.81 11.02c-.079.017-.153.033-.233.043.053.059.106.112.154.165.393.404.766.846 1.111 1.319 3.2 4.412 2.95 10.069-.563 12.62-3.514 2.552-8.98 1.043-12.18-3.37-.356-.484-.67-.994-.94-1.51-.038-.069-.075-.143-.112-.207a12.738 12.738 0 0 1-.994 1.61c-3.201 4.413-8.666 5.923-12.175 3.371-3.52-2.552-3.77-8.219-.569-12.626.32-.436.66-.845 1.01-1.223.053-.058.112-.111.17-.17-.08-.016-.16-.026-.228-.037a13.187 13.187 0 0 1-1.58-.399c-5.183-1.685-8.303-6.416-6.969-10.542 1.34-4.13 6.65-6.119 11.84-4.434.558.181 1.095.404 1.61.654.064.037.139.07.213.101-.016-.08-.026-.154-.037-.228a12.271 12.271 0 0 1-.133-1.835c0-5.449 3.525-9.888 7.868-9.888s7.879 4.44 7.879 9.888c0 .622-.048 1.24-.139 1.835l-.031.228c.063-.032.138-.069.207-.1.516-.25 1.047-.474 1.616-.655 5.178-1.685 10.484.303 11.834 4.429 1.34 4.13-1.786 8.862-6.97 10.547-.558.181-1.116.314-1.663.415" fill="#009E3D"/><path d="M47.142 37.11a13.55 13.55 0 0 0-.473-.617 14.81 14.81 0 0 1-1.121.414 1.13 1.13 0 0 1-.128.038c.026.037.053.063.085.095.234.33.457.665.664 1 .25-.07.495-.144.745-.223.197-.064.393-.133.585-.202-.112-.17-.24-.346-.357-.51" fill="#F4C40E"/><path d="M29.833 48.428c-.037-.054-.074-.107-.106-.16a18.322 18.322 0 0 1-.819 1.042c.154.234.314.468.484.696.106.15.218.293.33.442.138-.181.281-.362.414-.559.139-.186.271-.377.404-.568a16.333 16.333 0 0 1-.707-.893Z" fill="#009E3D"/><path d="M13.98 36.907c-.41-.133-.808-.281-1.191-.441-.138.175-.277.35-.404.537-.149.197-.287.399-.42.595.218.08.436.154.648.229.229.074.452.144.686.207a15.474 15.474 0 0 1 .734-1.105c-.021 0-.032-.011-.053-.016" fill="#DF0826"/><path d="M27.93 27.194c.08.383.367.691.75.782l.01.032.43 2.01h-.605l.606 2.817h-.606l.606 2.823h1.206l.606-2.823h-.606l.606-2.818h-.606l.436-2.046a1 1 0 0 0 .75-.782c1.18.356 2.626 1.27 3.386 3.562 0 0 1.537-3.918-1.408-6.125a5.295 5.295 0 0 0-1.569-.802c.755-.218 1.75-.224 3.015.297 0 0-1.415-2.822-4.471-2.025a2.828 2.828 0 0 0-.74.303 2.987 2.987 0 0 0-.738-.303c-3.063-.797-4.477 2.026-4.477 2.026 1.271-.516 2.26-.51 3.015-.298a5.21 5.21 0 0 0-1.563.802c-2.946 2.207-1.41 6.125-1.41 6.125.761-2.292 2.212-3.2 3.387-3.562" fill="#009E3D"/><path fill-rule="evenodd" clip-rule="evenodd" d="M40.567 34.711c-.09.006-.165.006-.24.011-1.807.075-3.567.356-5.29.941a12.96 12.96 0 0 0-3.269 1.653c-.425.303-.824.633-1.206.984-.054.053-.07.08 0 .138.68.622 1.35 1.25 2.02 1.877.074.069.09.037.127-.032.07-.133.107-.271.155-.41.069-.217.154-.43.319-.595.27-.266.584-.388.956-.345.346.042.638.404.649.755a.778.778 0 0 1-.617.76c-.27.053-.505-.01-.733-.139-.096-.053-.133-.047-.186.048-.085.16-.09.309.026.463.192.26.457.41.74.547.137.07.238.08.366-.053.26-.244.574-.26.898-.122a.77.77 0 0 1 .442.702.677.677 0 0 1-.457.627c-.506.18-.979.101-1.452-.101-.436-.18-.819-.452-1.19-.744-.054-.043-.08-.048-.128.016-.32.425-.718.75-1.25.882-.34.085-.659.032-.94-.207-.373-.303-.405-.776-.08-1.127.319-.351.744-.314 1.09-.101a.38.38 0 0 1 .19.377c-.004.165.033.186.187.133a.521.521 0 0 0 .271-.218c.037-.042.016-.08 0-.122a3.614 3.614 0 0 0-.664-.84c-.373-.361-.793-.66-1.191-.989-.112-.095-.229-.191-.34-.292-.043-.032-.059-.038-.107 0-.43.398-.893.744-1.334 1.132-.32.287-.612.59-.85.946-.07.101-.065.165.02.25.075.075.16.123.26.15.086.015.145-.017.171-.097.021-.074.037-.148.058-.223a.37.37 0 0 1 .261-.282c.101-.02.186-.053.282-.063.446-.064.733.223.845.58.117.355-.053.717-.404.892-.362.17-.723.165-1.08.016a2.084 2.084 0 0 1-.972-.803c-.037-.063-.059-.058-.117-.016-.361.282-.734.548-1.154.74-.393.175-.797.281-1.228.244-.584-.053-.802-.627-.638-1.053.25-.627.941-.611 1.276-.265.101.106.181.117.303.053.303-.144.601-.298.792-.58a.368.368 0 0 0 0-.457c-.047-.07-.111-.101-.196-.058a2.38 2.38 0 0 1-.325.122c-.457.154-.76-.048-.93-.468-.122-.314-.043-.606.202-.83.24-.223.526-.26.83-.143.031.01.058.027.09.037.361.16.617.415.728.808.043.17.096.335.18.495.022.048.043.058.091.016.686-.638 1.366-1.276 2.063-1.909.053-.048.032-.074-.01-.106-.5-.473-1.037-.893-1.611-1.265-1.473-.947-3.073-1.542-4.774-1.909-.952-.207-1.92-.33-2.903-.393-.202-.016-.404-.022-.606-.027-.032 0-.07.01-.112-.026.207-.032.394-.07.59-.096a12.568 12.568 0 0 1 2.605-.09 15.06 15.06 0 0 1 2.435.377c1.19.282 2.297.75 3.35 1.366.632.378 1.249.798 1.844 1.239.085.069.117.01.17-.027.93-.803 1.957-1.43 3.078-1.919a12.953 12.953 0 0 1 3.1-.893c1.1-.175 2.19-.213 3.296-.122a9.89 9.89 0 0 1 1.127.154c.032 0 .058 0 .096.032" fill="#009E3D"/><path d="M84.371 27.612s1.414 1.61.393 1.61h-1.706c-.904 0-2.127-.393-2.855-1.61-1.17.197-1.951.244-2.541.244-2.903 0-5.662-1.44-5.662-4.737 0-3.662 3.126-4.954 6.422-4.954 1.345 0 2.371.074 3.004.17v5.933c0 2.1.632 3.344 2.195 3.344h.755-.005Zm-4.907-7.815c-.441-.096-.904-.122-1.536-.122-2.196 0-3.908 1.1-3.908 3.391 0 2.292 1.903 3.222 3.881 3.222.51 0 1.074-.048 1.563-.096v-6.395Zm-4.078-4.663c0-.61.463-1.121 1.074-1.121a1.1 1.1 0 0 1 1.1 1.121c0 .633-.44 1.122-1.1 1.122-.659 0-1.073-.51-1.073-1.122Zm3.004 0c0-.61.49-1.121 1.122-1.121.632 0 1.074.489 1.074 1.121 0 .633-.415 1.122-1.1 1.122-.633 0-1.101-.51-1.101-1.122" fill="#0D121C"/><path d="M84.126 27.612h1.76v-4.077l1.93-.708-.415 4.466c.755-4.322 4.05-9.032 9.202-9.032 2.882 0 5.811 1.733 5.811 4.981 0 2.834-2.318 5.98-6.252 5.98H84.833l-.707-1.61Zm12.45-7.767c-4.247 0-7.006 3.493-8.053 7.762h7.517c2.807 0 4.295-2.345 4.322-4.1 0-1.046-.611-3.662-3.785-3.662Zm-1.195-4.221c-.633 0-1.1-.537-1.1-1.149 0-.61.488-1.148 1.147-1.148.612 0 1.074.49 1.074 1.149 0 .61-.441 1.148-1.1 1.148h-.027.006ZM110.272 27.612s1.414 1.61.388 1.61h-1.584c-1.441 0-3.711-.95-3.711-4.71V14.014l1.978-.707v10.962c0 2.1.611 3.344 2.196 3.344h.733Z" fill="#0D121C"/><path d="M110.101 33.885c-.632 0-1.074-.51-1.074-1.148 0-.638.463-1.122 1.101-1.122.638 0 1.074.49 1.074 1.122 0 .632-.415 1.148-1.074 1.148h-.027Zm-.17-6.273c1.563 0 2.345-1.244 2.345-3.344v-5.444l1.977-.686v6.374c0 3.76-2.126 4.71-3.588 4.71l-.734-1.61Zm3.195 6.273c-.632 0-1.074-.51-1.074-1.148 0-.638.463-1.122 1.122-1.122s1.074.49 1.074 1.122c0 .632-.441 1.148-1.101 1.148h-.026.005ZM123.382 27.612s1.414 1.61.388 1.61c-1.489 0-2.515-.632-3.222-1.536v.755c0 3.515-1.366 5.418-4.635 5.519l-.245-1.563c1.855-.17 3.052-.633 2.929-4.69v-6.64l1.951-.706v4.784c0 1.197 1.122 2.44 2.515 2.467h.319Z" fill="#0D121C"/><path d="M123.041 27.612c1.563 0 2.345-1.244 2.345-3.344V14.013l1.977-.707v11.207c0 3.758-2.121 4.71-3.588 4.71l-.734-1.61ZM130.288 14.013l1.978-.707v15.917h-1.978v-15.21ZM146.258 29.223c-2.908 0-5.199-2.148-5.199-5.593 0-3.615 2.392-5.763 5.369-5.763 3.126 0 5.226 2.27 5.226 5.566 0 4.03-2.807 5.785-5.369 5.785h-.027v.005Zm.096-1.489c1.882 0 3.269-1.76 3.269-4.22 0-1.83-.904-4.153-3.248-4.153-2.345 0-3.296 2.148-3.296 4.227 0 2.37 1.345 4.152 3.248 4.152h.027v-.006Zm-1.393-12.158c-.633 0-1.074-.51-1.074-1.148 0-.638.462-1.122 1.1-1.122.638 0 1.074.49 1.074 1.122 0 .632-.441 1.148-1.074 1.148h-.026Zm1.93-1.148c0-.612.489-1.122 1.121-1.122.633 0 1.074.49 1.074 1.122 0 .632-.414 1.148-1.1 1.148-.633 0-1.101-.51-1.101-1.148M153.068 32.397c1.855-.17 3.051-.633 2.929-4.69v-6.64l1.951-.706v8.08c0 3.515-1.366 5.418-4.641 5.519l-.245-1.563h.006ZM160.878 14.013l1.978-.707v15.917h-1.978v-15.21ZM164.392 32.397c1.855-.17 3.052-.633 2.929-4.69v-6.64l1.951-.706v8.08c0 3.514-1.366 5.418-4.641 5.519l-.244-1.563h.005Zm3.785-14.578c-.632 0-1.074-.51-1.074-1.148 0-.638.463-1.122 1.101-1.122.638 0 1.074.49 1.074 1.122 0 .633-.415 1.148-1.074 1.148h-.027ZM178.039 32.397c1.903-.271 2.732-.856 2.854-3.174-.611.143-1.318.218-2.174.218-3.323 0-5.322-2.222-5.322-5.47 0-3.249 1.93-5.838 5.104-5.838 3.541 0 4.445 2.249 4.445 5.104v5.029c0 3.514-1.319 5.614-4.663 5.688l-.244-1.563v.006Zm-2.754-8.597c.026 3.025 1.733 4.104 3.71 4.104.809 0 1.441-.074 1.978-.196v-5.2c0-1.27-.585-2.977-2.637-2.977s-3.126 1.951-3.051 4.275M81.91 37.51c.44.038.802.214 1.084.532.282.32.425.697.425 1.133v10.978h-1.031V39.175c0-.356-.197-.574-.59-.649-.388-.074-.617.101-.702.521L79.033 49.17a1.49 1.49 0 0 1-.473.786 1.25 1.25 0 0 1-.845.32 1.37 1.37 0 0 1-.872-.304 1.291 1.291 0 0 1-.473-.797l-2.047-10.122c-.08-.42-.313-.596-.701-.521-.394.074-.59.287-.59.648v10.978H72V39.18c0-.441.144-.819.425-1.132a1.586 1.586 0 0 1 1.085-.532c.452-.048.845.053 1.185.303.34.25.553.59.649 1.032l2.036 10.138c.037.175.154.26.346.26.175 0 .281-.085.319-.26L80.09 38.85c.09-.442.309-.787.649-1.032.34-.244.734-.345 1.186-.303M85.966 39.175h-1.031v-1.552h1.03v1.552Zm0 10.973h-1.031V40.78h1.03v9.367ZM91.218 40.579c1.01 0 1.882.372 2.626 1.116.734.734 1.101 1.61 1.101 2.626v5.832H93.93v-5.832a2.61 2.61 0 0 0-.798-1.913 2.61 2.61 0 0 0-1.914-.798c-.744 0-1.393.266-1.924.797a2.576 2.576 0 0 0-.798 1.914v5.832h-1.02v-5.832c0-1.036.361-1.913 1.084-2.626.734-.744 1.616-1.116 2.653-1.116M97.491 39.175H96.46v-1.552h1.031v1.552Zm0 10.973H96.46V40.78h1.031v9.367ZM101.654 40.578c.745 0 1.372.266 1.882.798.532.516.798 1.138.798 1.871v.66h-1.042v-.66c0-.452-.16-.834-.473-1.153a1.572 1.572 0 0 0-1.149-.484c-.446 0-.824.154-1.148.468-.324.313-.489.685-.489 1.116 0 .697.329 1.175.989 1.43l1.664.649a2.49 2.49 0 0 1 1.185.94c.298.437.441.92.441 1.452 0 .468-.116.904-.345 1.308-.521.872-1.287 1.308-2.297 1.308-.744 0-1.371-.255-1.882-.771a2.584 2.584 0 0 1-.781-1.898v-.66h1.031v.66c0 .452.16.834.484 1.154.319.319.702.478 1.143.478.441 0 .824-.154 1.148-.468.325-.314.489-.686.489-1.116 0-.68-.329-1.154-.988-1.43l-1.664-.66a2.56 2.56 0 0 1-1.191-.94 2.511 2.511 0 0 1-.436-1.436c0-.478.117-.914.345-1.308.521-.872 1.287-1.308 2.297-1.308M106.704 37.617v2.956c0 .138.069.207.208.207h1.525v1.032h-1.525c-.139 0-.208.064-.208.191v5.678c0 .393.144.733.426 1.01.281.282.622.42 1.015.42h.287v1.031h-.287c-.696 0-1.281-.239-1.76-.717a2.397 2.397 0 0 1-.712-1.75V37.606h1.031v.011ZM113.675 41.61H113c-.606 0-1.122.218-1.553.648-.42.42-.632.936-.632 1.542v6.353h-1.032V43.8c0-.882.314-1.632.936-2.254.643-.643 1.403-.962 2.281-.962h.675v1.031-.005ZM119.565 53.327h-1.048l.649-2.945a.126.126 0 0 0-.027-.117c-.026-.032-.063-.043-.111-.038-.016 0-.069.006-.16.022a1.078 1.078 0 0 1-.186.02c-.457 0-.866-.148-1.233-.44a1.94 1.94 0 0 1-.697-1.1l-1.717-7.949h1.047l1.68 7.73c.091.479.399.713.92.713.484 0 .792-.245.92-.729l1.717-7.714h1.058l-2.818 12.541.006.006ZM131.691 40.579c1.34 0 2.483.478 3.44 1.43.946.946 1.414 2.084 1.414 3.423 0 1.34-.473 2.483-1.414 3.424-.952.952-2.1 1.43-3.44 1.43-1.339 0-2.482-.478-3.423-1.43-.947-.946-1.414-2.084-1.414-3.424 0-1.34.473-2.477 1.414-3.423.946-.952 2.084-1.43 3.423-1.43Zm0 1.031c-1.063 0-1.967.372-2.711 1.116-.744.75-1.111 1.654-1.111 2.712 0 1.058.372 1.935 1.111 2.695.744.744 1.648 1.116 2.711 1.116 1.064 0 1.978-.372 2.712-1.116.749-.75 1.127-1.648 1.127-2.695 0-1.048-.378-1.957-1.127-2.712-.734-.744-1.638-1.116-2.712-1.116ZM140.66 38.664h-.287c-.404 0-.744.139-1.026.42-.282.282-.42.617-.42 1.01v.479c0 .138.069.207.207.207h1.526v1.016h-1.526c-.138 0-.207.069-.207.207v8.145h-1.031V40.093c0-.68.239-1.254.717-1.733a2.38 2.38 0 0 1 1.76-.744h.287v1.047ZM148.336 37.51c.872 0 1.632.32 2.281.952.632.633.951 1.388.951 2.255v.77h-1.031v-.77c0-.585-.218-1.101-.659-1.542a2.112 2.112 0 0 0-1.542-.649c-.595 0-1.106.218-1.552.649-.42.441-.633.951-.633 1.542 0 .494.138.946.404 1.355.271.41.627.718 1.069.93l1.871.851a3.485 3.485 0 0 1 1.515 1.297c.378.585.564 1.218.564 1.904 0 .882-.319 1.637-.952 2.27-.633.632-1.393.951-2.281.951a3.095 3.095 0 0 1-2.28-.951 3.098 3.098 0 0 1-.936-2.27v-.771h1.031v.77c0 .617.213 1.133.633 1.553.42.42.941.633 1.552.633.612 0 1.127-.213 1.542-.633.441-.42.659-.941.659-1.553 0-.494-.133-.946-.398-1.355a2.454 2.454 0 0 0-1.058-.915l-1.898-.85a3.566 3.566 0 0 1-1.499-1.308 3.428 3.428 0 0 1-.564-1.914c0-.882.314-1.632.936-2.254.632-.633 1.393-.952 2.28-.952M157.757 40.579c1.34 0 2.483.478 3.44 1.43.946.946 1.414 2.084 1.414 3.423 0 1.34-.473 2.483-1.414 3.424-.941.941-2.1 1.43-3.44 1.43-1.451 0-2.674-.569-3.673-1.706-.016-.038-.053-.048-.112-.027-.027.027-.043.053-.043.07v4.704h-1.015v-7.964c0-1.313.473-2.434 1.414-3.37.947-.947 2.084-1.414 3.424-1.414m.005 1.031c-1.063 0-1.967.372-2.711 1.116a3.71 3.71 0 0 0-1.117 2.712c0 1.058.373 1.935 1.117 2.695.744.744 1.643 1.116 2.711 1.116 1.069 0 1.978-.372 2.712-1.116.749-.75 1.127-1.648 1.127-2.695 0-1.048-.378-1.957-1.127-2.712-.734-.744-1.638-1.116-2.712-1.116ZM168.799 40.579c1.339 0 2.482.478 3.439 1.43.947.946 1.415 2.084 1.415 3.423 0 1.34-.474 2.483-1.415 3.424-.941.941-2.1 1.43-3.439 1.43-1.34 0-2.483-.478-3.424-1.43-.946-.946-1.414-2.084-1.414-3.424 0-1.34.473-2.477 1.414-3.423.946-.952 2.084-1.43 3.424-1.43Zm0 1.031c-1.064 0-1.967.372-2.712 1.116a3.71 3.71 0 0 0-1.116 2.712c0 1.058.372 1.935 1.116 2.695.745.744 1.643 1.116 2.712 1.116 1.068 0 1.977-.372 2.711-1.116.75-.75 1.127-1.648 1.127-2.695 0-1.048-.377-1.957-1.127-2.712-.734-.744-1.637-1.116-2.711-1.116ZM178.894 41.61h-.675c-.606 0-1.121.218-1.552.648-.42.42-.633.936-.633 1.542v6.353h-1.031V43.8c0-.882.314-1.632.936-2.254.643-.643 1.403-.962 2.28-.962h.675v1.031-.005ZM181.271 37.617v2.956c0 .138.069.207.207.207h1.526v1.032h-1.526c-.138 0-.207.064-.207.191v5.678c0 .393.143.733.425 1.01.282.282.622.42 1.015.42h.287v1.031h-.287c-.696 0-1.281-.239-1.759-.717a2.394 2.394 0 0 1-.713-1.75V37.606h1.032v.011Z" fill="#0D121C"/></svg>
